<?xml version="1.0" encoding="utf-8"?>
<!-- Generator: Adobe Illustrator 22.1.0, SVG Export Plug-In . SVG Version: 6.00 Build 0)  -->
<svg version="1.1" id="レイヤー_1" xmlns="http://www.w3.org/2000/svg" xmlns:xlink="http://www.w3.org/1999/xlink" x="0px"
	 y="0px" width="1065.411px" height="306.118px" viewBox="0 0 1065.411 306.118"
	 style="enable-background:new 0 0 1065.411 306.118;" xml:space="preserve">
<style type="text/css">
	.st0{fill:#333333;}
</style>
<g>
	<path class="st0" d="M731.843,91.174c-56.649,0-102.495,46.137-102.495,102.495c0,56.65,45.846,102.495,102.495,102.495
		c56.357,0,102.494-45.845,102.494-102.495C834.337,137.312,788.2,91.174,731.843,91.174z M731.374,278.848
		c-46.116,0-83.5-37.384-83.5-83.5c0-28.582,14.368-53.799,36.268-68.851c17.237-8.083,41.673-9.681,46.356,14.153
		c0.959,4.883,1.558,10.105,4.599,14.048c4.697,6.088,12.936,5.926,19.269,2.548c4.694-2.504,8.496-6.369,12.82-9.469
		c13.541-9.709,26.923-4.998,35.809,8.019c4.318,6.325,7.328,13.578,9.579,20.869c0.823,2.663,1.22,6.67,1.887,10.398
		c0.268,2.726,0.412,5.488,0.412,8.284C814.874,241.464,777.49,278.848,731.374,278.848z"/>
	<path class="st0" d="M116.899,125.047c19.856,0,38.545,8.76,51.685,23.652c6.132,7.008,16.937,7.592,23.945,1.46
		c7.008-6.132,7.884-16.936,1.752-23.944c-19.564-22.193-47.597-35.041-77.382-35.041c-56.357,0-102.495,46.137-102.495,102.495
		c0,56.65,46.137,102.495,102.495,102.495c29.785,0,57.817-12.556,77.382-35.041c2.628-2.92,4.088-7.008,4.088-11.097v-49.641
		c0-9.344-7.592-16.937-16.936-16.937h-58.11c-9.344,0-16.937,7.592-16.937,16.937c0,9.344,7.592,16.937,16.937,16.937h41.173
		v25.988c-12.849,11.973-29.785,18.98-47.597,18.98c-37.669,0-68.622-30.661-68.622-68.622
		C48.277,156,79.23,125.047,116.899,125.047z"/>
	<path class="st0" d="M228.441,91.174c-9.344,0-16.937,7.592-16.937,16.937v171.116c0,9.344,7.592,16.937,16.937,16.937
		s17.228-7.593,17.228-16.937V108.111C245.669,98.767,237.785,91.174,228.441,91.174z"/>
	<path class="st0" d="M403.344,91.174c-9.344,0-16.937,7.592-16.937,16.937v171.116c0,9.344,7.592,16.937,16.937,16.937
		s17.228-7.593,17.228-16.937V108.111C420.572,98.767,412.688,91.174,403.344,91.174z"/>
	<path class="st0" d="M540.203,125.047c19.856,0,38.545,8.76,51.686,23.652c6.132,7.008,16.936,7.592,23.944,1.46
		c7.008-6.132,7.884-16.936,1.752-23.944c-19.564-22.193-47.598-35.041-77.382-35.041c-56.357,0-102.495,46.137-102.495,102.495
		c0,56.65,46.138,102.495,102.495,102.495c29.784,0,57.817-12.556,77.382-35.041c2.628-2.92,4.088-7.008,4.088-11.097v-49.641
		c0-9.344-7.592-16.937-16.937-16.937h-58.109c-9.344,0-16.937,7.592-16.937,16.937c0,9.344,7.593,16.937,16.937,16.937H587.8
		v25.988c-12.848,11.973-29.784,18.98-47.597,18.98c-37.669,0-68.622-30.661-68.622-68.622
		C471.581,156,502.534,125.047,540.203,125.047z"/>
	<path class="st0" d="M994.057,165.344c0-40.881-33.289-74.17-74.17-74.17h-56.941c-9.344,0-16.937,7.592-16.937,16.937v171.116
		c0,9.344,7.593,16.937,16.937,16.937c9.345,0,16.937-7.593,16.937-16.937v-39.713h32.705l49.642,51.393
		c3.212,3.505,7.592,5.257,12.264,5.257c4.088,0,8.469-1.46,11.681-4.672c6.716-6.716,7.008-17.229,0.584-24.237L952.3,231.922
		C977.12,219.95,994.057,194.545,994.057,165.344z M919.887,205.641h-40.005v-80.594h40.005c22.192,0,40.005,18.104,40.005,40.297
		S942.079,205.641,919.887,205.641z"/>
	<path class="st0" d="M1024.128,91.174c-9.344,0-16.937,7.592-16.937,16.937v171.116c0,9.344,7.593,16.937,16.937,16.937
		c9.345,0,17.229-7.593,17.229-16.937V108.111C1041.357,98.767,1033.473,91.174,1024.128,91.174z"/>
	<path class="st0" d="M361.874,90.848h-49c-9.389,0-17,7.611-17,17v0c0,9.389,7.611,17,17,17h23.233v111.454
		c0,14.308-11.388,25.988-25.697,25.988c-9.344,0-18.104-5.256-22.484-13.433c-4.672-8.176-14.893-11.096-23.36-6.716
		c-8.176,4.673-11.097,14.893-6.424,23.36c10.512,18.98,30.661,30.661,52.269,30.661c32.997,0,59.862-26.864,59.862-59.861V122.617
		c5.133-2.926,8.602-8.438,8.602-14.769v0C378.874,98.459,371.263,90.848,361.874,90.848z"/>
	
		<ellipse transform="matrix(0.9871 -0.1602 0.1602 0.9871 -18.512 117.5168)" class="st0" cx="719.653" cy="173.581" rx="6.779" ry="6.779"/>
	
		<ellipse transform="matrix(0.9973 -0.0739 0.0739 0.9973 -11.5462 56.2329)" class="st0" cx="754.095" cy="184.139" rx="6.779" ry="6.779"/>
	<path class="st0" d="M740.797,213.138c-1.14-0.12-2.097-0.807-2.723-1.797c-0.099-1.811-1.407-3.302-3.132-3.431
		c-1.718-0.129-3.23,1.139-3.606,2.905c-1.169,0.586-2.493,0.706-3.701,0.205c-1.441-0.598-2.384-1.934-2.664-3.505
		c0.513-1.678-0.148-3.476-1.656-4.227c-1.642-0.817-3.666-0.083-4.62,1.627c-1.001,0.547-2.209,0.824-3.495,0.679
		c-2.99-0.339-5.175-2.717-4.881-5.311c0.294-2.595,2.956-4.423,5.945-4.084c0.212,0.024,0.418,0.061,0.621,0.104l-1.725-5.957
		c-5.92,0.074-10.9,3.913-11.497,9.182c-0.656,5.785,4.216,11.087,10.882,11.842c1.744,0.198,3.434,0.057,4.994-0.354
		c0.575,1.752,1.548,3.306,2.864,4.497l-2.861,9.405l-16.668-5.07l-2.097,6.894l40.152,12.213l2.097-6.894l-16.787-5.106
		l2.757-9.063c2.019-0.079,4.023-0.78,5.785-2.005c1.372,1.686,3.246,2.818,5.404,3.046c4.118,0.435,7.922-2.544,9.389-6.961
		l-5.247-0.595C743.481,212.573,742.178,213.284,740.797,213.138z"/>
	
		<rect x="713.801" y="231.186" transform="matrix(0.291 -0.9567 0.9567 0.291 276.8758 858.1138)" class="st0" width="7.205" height="22.128"/>
</g>
<g>
	<path class="st0" d="M995.709,9.446c-2.109,0-3.882,0.718-5.317,2.153c-1.437,1.437-2.153,3.208-2.153,5.317v23.73
		c0,2.052,0.717,3.823,2.153,5.317c1.436,1.494,3.208,2.241,5.317,2.241c2.051,0,3.823-0.747,5.317-2.241s2.241-3.266,2.241-5.317
		v-23.73c0-2.109-0.747-3.881-2.241-5.317C999.532,10.165,997.76,9.446,995.709,9.446z"/>
	<path class="st0" d="M1038.819,11.688c-1.494-1.494-3.267-2.241-5.317-2.241c-2.109,0-3.882,0.747-5.317,2.241
		c-1.437,1.494-2.153,3.267-2.153,5.317v28.389c0,3.106-1.113,5.787-3.34,8.042c-2.228,2.256-4.922,3.384-8.086,3.384
		c-1.992,0-3.735,0.718-5.229,2.153c-1.494,1.437-2.241,3.208-2.241,5.317c0,2.052,0.732,3.81,2.197,5.273
		c1.464,1.465,3.222,2.228,5.273,2.285c7.44-0.117,13.652-2.694,18.633-7.734c4.979-5.039,7.588-11.103,7.822-18.193V17.005
		C1041.061,14.955,1040.314,13.182,1038.819,11.688z"/>
	<circle class="st0" cx="794.874" cy="13.848" r="7"/>
	<circle class="st0" cx="811.874" cy="13.848" r="7"/>
	<path class="st0" d="M793.874,38.848c4.418,0,8-3.582,8-8s-3.582-8-8-8h-12v-9h0.329v-0.589c0-2.05-0.747-3.823-2.241-5.317
		S776.695,5.7,774.645,5.7c-2.109,0-3.882,0.747-5.317,2.241c-1.339,1.393-2.044,3.031-2.135,4.907h-0.318v10h-10
		c-4.418,0-8,3.582-8,8s3.582,8,8,8h10.3v4.645h-11.426c-2.109,0-3.882,0.747-5.317,2.241c-1.437,1.494-2.153,3.267-2.153,5.317
		c0,2.109,0.717,3.882,2.153,5.317c1.436,1.437,3.208,2.153,5.317,2.153h11.426v6.855c0,2.109,0.717,3.882,2.153,5.317
		c1.436,1.437,3.208,2.153,5.317,2.153c2.051,0,3.823-0.717,5.317-2.153c1.494-1.435,2.241-3.208,2.241-5.317v-6.855h11.338
		c2.051,0,3.823-0.717,5.317-2.153c1.494-1.435,2.241-3.208,2.241-5.317c0-2.05-0.747-3.823-2.241-5.317s-3.267-2.241-5.317-2.241
		h-11.338v-4.645H793.874z"/>
	<path class="st0" d="M857.869,41.219c1.494-1.435,2.241-3.208,2.241-5.317c0-2.05-0.747-3.823-2.241-5.317
		c-1.494-1.494-3.267-2.241-5.317-2.241h-14.15c-2.109,0-3.882,0.747-5.317,2.241c-1.437,1.494-2.153,3.267-2.153,5.317
		c0,2.109,0.717,3.882,2.153,5.317c1.436,1.437,3.208,2.153,5.317,2.153h14.15C854.603,43.372,856.375,42.655,857.869,41.219z"/>
	<path class="st0" d="M838.401,24.476h14.15c2.051,0,3.823-0.717,5.317-2.153c1.494-1.435,2.241-3.208,2.241-5.317
		c0-2.05-0.747-3.823-2.241-5.317s-3.267-2.241-5.317-2.241h-14.15c-2.109,0-3.882,0.747-5.317,2.241
		c-1.437,1.494-2.153,3.267-2.153,5.317c0,2.109,0.717,3.882,2.153,5.317C834.52,23.759,836.292,24.476,838.401,24.476z"/>
	<path class="st0" d="M876.374,22.348c-4.142,0-7.5,3.358-7.5,7.5c0,0.34,0.031,0.672,0.074,1h-0.225v14.545
		c0,3.106-1.113,5.787-3.34,8.042c-2.228,2.256-4.922,3.384-8.086,3.384c-1.992,0-3.735,0.718-5.229,2.153
		c-1.494,1.437-2.241,3.208-2.241,5.317c0,2.052,0.732,3.81,2.197,5.273c1.464,1.465,3.222,2.228,5.273,2.285
		c7.44-0.117,13.652-2.694,18.633-7.734c4.979-5.039,7.588-11.103,7.822-18.193V31.155c0.075-0.425,0.121-0.86,0.121-1.307
		C883.874,25.706,880.516,22.348,876.374,22.348z"/>
	<circle class="st0" cx="875.874" cy="12.848" r="7"/>
	<circle class="st0" cx="892.874" cy="12.848" r="7"/>
	<path class="st0" d="M951.874,22.848h-37c-4.418,0-8,3.582-8,8s3.582,8,8,8h30.503v17.883h-30.322
		c-2.109,0-3.882,0.747-5.317,2.241c-1.437,1.494-2.153,3.267-2.153,5.317c0,2.109,0.717,3.882,2.153,5.317
		c1.436,1.437,3.208,2.153,5.317,2.153h37.793c2.051,0,3.823-0.717,5.317-2.153c1.494-1.435,2.241-3.208,2.241-5.317V35.374
		c-0.053-1.613-0.243-3.165-0.54-4.669C959.789,26.353,956.244,22.848,951.874,22.848z"/>
	<circle class="st0" cx="952.874" cy="13.848" r="7"/>
	<circle class="st0" cx="969.874" cy="13.848" r="7"/>
</g>
</svg>
